<?xml version="1.0" encoding="UTF-8"?>
<svg version="1.1" xmlns="http://www.w3.org/2000/svg" width="1576" height="1552">
<path d="M0 0 C11.73694362 8.19471289 21.16068771 20.16807518 24.3125 34.1875 C26.13370568 46.05844977 23.8800028 56.15955097 19 67 C15.40608886 65.66511872 12.24509304 64.03977277 9 62 C9.12117188 62.8559375 9.24234375 63.711875 9.3671875 64.59375 C13.83068572 98.92835169 13.36300369 133.4492553 13 168 C12.98549805 169.38451355 12.98549805 169.38451355 12.97070312 170.79699707 C12.43715835 217.55108067 6.70062895 262.57834819 -8.1875 307.125 C-8.49598877 308.07294434 -8.80447754 309.02088867 -9.12231445 309.99755859 C-10.92844585 315.16737622 -12.40807821 317.77407847 -17 321 C-18.39947028 325.0628967 -18.05266652 329.20643267 -17.95703125 333.4453125 C-17.93088338 335.16664468 -17.90628695 336.88800097 -17.88305664 338.609375 C-17.87049835 339.50978516 -17.85794006 340.41019531 -17.84500122 341.33789062 C-17.39426007 379.99074264 -26.58415303 413.8135916 -41.77783203 449.18481445 C-45.03777718 456.8841545 -47.93388992 464.7149701 -50.8125 472.5625 C-51.04933502 473.20557098 -51.28617004 473.84864197 -51.53018188 474.51119995 C-54.26197808 481.94315449 -56.84986857 489.37761239 -59 497 C-59.66 497 -60.32 497 -61 497 C-66.85973875 477.30889821 -68.22089557 456.90600571 -68.7097168 436.45581055 C-68.73590088 435.37726807 -68.76208496 434.29872559 -68.7890625 433.1875 C-68.81540771 431.75470703 -68.81540771 431.75470703 -68.84228516 430.29296875 C-68.85426149 427.97082365 -68.85426149 427.97082365 -70 426 C-79.54492778 471.56112195 -74.27008488 517.31192296 -67.51342773 562.87744141 C-64.38050858 584.17611623 -62.5732463 605.47891025 -62 627 C-61.97663574 627.86367188 -61.95327148 628.72734375 -61.92919922 629.6171875 C-60.89095959 675.54402291 -65.90638792 722.02163859 -75 767 C-75.26006836 768.29083496 -75.52013672 769.58166992 -75.78808594 770.91162109 C-83.70801577 809.44009245 -95.49893195 847.2687255 -112 883 C-112.47195801 884.02222656 -112.94391602 885.04445313 -113.43017578 886.09765625 C-123.59128618 907.95527414 -135.11751825 928.63746715 -148 949 C-134.83041778 938.89693172 -123.12981577 927.14278662 -113 914 C-112.02036412 912.77147082 -111.03983087 911.54365689 -110.05859375 910.31640625 C-79.49948154 871.69944192 -59.77050007 826.44931043 -45.5625 779.625 C-45.35889862 778.95501984 -45.15529724 778.28503967 -44.94552612 777.59475708 C-43.13277862 771.59601403 -41.36697166 765.59603598 -39.89794922 759.50292969 C-39.71981186 758.76464935 -39.5416745 758.02636902 -39.35813904 757.26571655 C-39.01904845 755.83961335 -38.68787658 754.41159817 -38.36561584 752.9815979 C-37.97058382 751.30573091 -37.49247482 749.64986333 -37 748 C-36.34 747.67 -35.68 747.34 -35 747 C-33.12371794 817.15210162 -45.21035867 918.315538 -85 978 C-88.13183817 978.29403812 -91.06579426 978.39078002 -94.19998169 978.36076355 C-95.1654089 978.36332682 -96.1308361 978.3658901 -97.12551868 978.36853105 C-100.38088343 978.37349722 -103.63579081 978.3569293 -106.89111328 978.34057617 C-109.21650176 978.33973051 -111.54189104 978.34020384 -113.86727905 978.34190369 C-120.1976068 978.34276745 -126.52776539 978.32508009 -132.85805368 978.30418181 C-138.79811038 978.28737165 -144.73816027 978.28431558 -150.67823754 978.2812262 C-162.44584275 978.27465589 -174.21338566 978.25467906 -185.98095703 978.22631836 C-197.41389656 978.19879275 -208.84681919 978.17755185 -220.27978516 978.16479492 C-220.98419067 978.16400675 -221.68859618 978.16321858 -222.41434731 978.16240653 C-225.94804675 978.15849149 -229.48174631 978.15470035 -233.01544595 978.15097082 C-262.34367081 978.11985688 -291.67183474 978.06678278 -321 978 C-320.20899248 976.40303718 -319.41625894 974.80692923 -318.62280273 973.21118164 C-318.18153549 972.32225723 -317.74026825 971.43333282 -317.28562927 970.51747131 C-315.68998339 967.39293703 -313.91014521 964.41934326 -312.0625 961.4375 C-305.38122065 950.47950741 -299.184746 939.24336254 -293 928 C-292.51772949 927.12633789 -292.03545898 926.25267578 -291.53857422 925.35253906 C-268.13220279 882.6896826 -250.68486328 836.46568936 -238.875 789.3125 C-238.67628296 788.52039124 -238.47756592 787.72828247 -238.27282715 786.91217041 C-237.71377213 784.66839239 -237.16326455 782.42274959 -236.6171875 780.17578125 C-236.452117 779.50745773 -236.28704651 778.83913422 -236.11697388 778.15055847 C-235.35499874 774.9573141 -235 772.31619425 -235 769 C-235.39930725 769.80305573 -235.7986145 770.60611145 -236.21002197 771.4335022 C-240.02827707 779.11057736 -243.85067357 786.78557432 -247.6774025 794.45842934 C-249.64323587 798.40040443 -251.60762018 802.34308591 -253.56835938 806.28759766 C-264.62292365 828.52290779 -275.73521514 850.69072077 -288.625 871.9375 C-289.25833252 872.98615234 -289.89166504 874.03480469 -290.54418945 875.11523438 C-295.47668347 883.23594907 -300.58691288 891.19306913 -306 899 C-306.45407227 899.66370605 -306.90814453 900.32741211 -307.37597656 901.01123047 C-332.6076087 937.8692029 -332.6076087 937.8692029 -342 941 C-340.54004369 936.32841033 -338.68850394 931.91325983 -336.6484375 927.47265625 C-335.96290141 925.96372156 -335.27778064 924.45459814 -334.59301758 922.9453125 C-334.23204987 922.15157227 -333.87108215 921.35783203 -333.49917603 920.54003906 C-318.8789767 888.31900419 -305.68697504 855.60048623 -293.80993652 822.27227783 C-293.01654295 820.04641127 -292.21978814 817.82176801 -291.42285156 815.59716797 C-272.41964198 762.39859674 -258.29960179 707.5216629 -248 652 C-248.41958984 653.26662476 -248.41958984 653.26662476 -248.84765625 654.55883789 C-252.23084756 664.76212405 -255.63307386 674.95897395 -259.04656982 685.15216064 C-259.68911796 687.07141379 -260.33123961 688.99080976 -260.97296143 690.91033936 C-272.00216905 723.89717046 -283.51802204 756.33635449 -298 788 C-298.47018555 789.0322168 -298.94037109 790.06443359 -299.42480469 791.12792969 C-306.70017429 806.99385081 -314.93217702 822.09114267 -324 837 C-324.48275391 837.79857422 -324.96550781 838.59714844 -325.46289062 839.41992188 C-330.60777502 847.906405 -335.99861443 856.0875587 -342 864 C-343.17345862 860.47962415 -342.77366033 859.54553093 -341.65161133 856.09350586 C-341.16838661 854.5830368 -341.16838661 854.5830368 -340.67539978 853.04205322 C-340.31458817 851.9440741 -339.95377655 850.84609497 -339.58203125 849.71484375 C-339.21344498 848.56779968 -338.8448587 847.42075562 -338.46510315 846.23895264 C-337.66939611 843.76297638 -336.87015873 841.28813253 -336.06781006 838.81430054 C-333.95400092 832.29642844 -331.88199563 825.76518928 -329.80859375 819.234375 C-329.60064934 818.58002157 -329.39270493 817.92566814 -329.17845917 817.25148582 C-321.31448093 792.49093189 -314.02041223 767.61713107 -308.375 742.25 C-308.21183289 741.51800385 -308.04866577 740.78600769 -307.8805542 740.03182983 C-305.82846182 730.73384086 -304.20885981 721.44502715 -303 712 C-303.21662292 712.53347046 -303.43324585 713.06694092 -303.65643311 713.61657715 C-305.92401757 719.1990771 -308.19608889 724.77973577 -310.47070312 730.359375 C-311.31754469 732.43833872 -312.16326438 734.5177598 -313.0078125 736.59765625 C-314.22617342 739.59758266 -315.44864018 742.59580819 -316.671875 745.59375 C-317.04495789 746.51490601 -317.41804077 747.43606201 -317.8024292 748.38513184 C-319.9848373 753.72072105 -322.3550183 758.87730817 -325 764 C-328.16716551 760.05579699 -330.48094167 755.66051779 -332.86328125 751.22070312 C-335.97263305 745.61298111 -339.74706354 741.4890301 -345.3125 738.1875 C-346.35857422 737.55908203 -346.35857422 737.55908203 -347.42578125 736.91796875 C-347.94527344 736.61503906 -348.46476562 736.31210937 -349 736 C-348.94779297 736.89912109 -348.94779297 736.89912109 -348.89453125 737.81640625 C-347.81749068 773.87162143 -361.0771609 809.72271478 -383 838 C-383.72832031 838.93972656 -384.45664062 839.87945313 -385.20703125 840.84765625 C-394.26563338 852.19131116 -403.99836418 862.36681143 -415.1640625 871.63671875 C-417.92708807 873.86673091 -417.92708807 873.86673091 -420 876 C-416.12406274 873.58483409 -412.24941851 871.1676014 -408.375 868.75 C-407.28058594 868.06808594 -406.18617188 867.38617187 -405.05859375 866.68359375 C-403.99511719 866.01972656 -402.93164062 865.35585937 -401.8359375 864.671875 C-400.86188965 864.0644043 -399.8878418 863.45693359 -398.88427734 862.83105469 C-396.81647014 861.51832792 -394.77795091 860.15902394 -392.76025391 858.77050781 C-390 857 -390 857 -388 857 C-394.61111424 875.38613364 -415.29179739 893.01384498 -432 902 C-459.83298209 910.53198669 -497.59386216 903.74374902 -525 896 C-525.74056641 895.79568359 -526.48113281 895.59136719 -527.24414062 895.38085938 C-544.8551352 890.40555598 -562.97084333 882.49420514 -577.66796875 871.5234375 C-581.85802409 868.78621542 -585.90178729 867.72429658 -590.875 867.875 C-592.04675781 867.90207031 -592.04675781 867.90207031 -593.2421875 867.9296875 C-593.82226562 867.95289063 -594.40234375 867.97609375 -595 868 C-594.01 867.34 -593.02 866.68 -592 866 C-592.69448242 865.89977539 -593.38896484 865.79955078 -594.10449219 865.69628906 C-597.32142052 865.22544094 -600.53560058 864.7378024 -603.75 864.25 C-604.84183594 864.09273437 -605.93367188 863.93546875 -607.05859375 863.7734375 C-618.0374259 862.0843864 -629.49111982 859.63128267 -638 852 C-639.2421875 849.8125 -639.2421875 849.8125 -640 848 C-637.69 846.68 -635.38 845.36 -633 844 C-637.01008608 844.55936368 -640.31984262 845.94139949 -643.97729492 847.57885742 C-657.809282 853.73472574 -657.809282 853.73472574 -665 852 C-671.32582091 849.01612221 -674.83264178 844.00177829 -677.3125 837.625 C-678.89640519 829.27349989 -678.32381063 822.48879016 -674 815 C-668.10468909 807.10250803 -657.90304263 804.23646587 -649 801 C-647.80020508 800.55962402 -647.80020508 800.55962402 -646.57617188 800.11035156 C-644.18212313 799.24162096 -641.78139622 798.39636752 -639.375 797.5625 C-638.64168457 797.30331787 -637.90836914 797.04413574 -637.15283203 796.77709961 C-631.39223343 794.85447836 -625.92170598 794.10505409 -620 796 C-620.33 796.99 -620.66 797.98 -621 799 C-619.9584375 799.1959375 -618.916875 799.391875 -617.84375 799.59375 C-594.23529634 804.377634 -579.25668398 816.11497404 -566 836 C-566 833.69 -566 831.38 -566 829 C-564.62511713 828.97250234 -563.25006609 828.9533836 -561.875 828.9375 C-561.10929687 828.92589844 -560.34359375 828.91429687 -559.5546875 828.90234375 C-557 829 -557 829 -554.22241211 829.49121094 C-538.24714401 832.01355799 -521.39191663 830.7545711 -506 826 C-483.75882787 819.37153022 -465.27699486 821.08575358 -443 827 C-447.29 824.03 -451.58 821.06 -456 818 C-452.75292612 809.4907084 -448.87608059 801.35769437 -444.875 793.1875 C-443.87133747 791.12810724 -442.86898516 789.06808049 -441.86677551 787.00798035 C-441.19965217 785.63671802 -440.53216354 784.26563334 -439.86430359 782.89472961 C-436.89669281 776.79997692 -433.97057956 770.68588104 -431.0625 764.5625 C-430.64403809 763.68166748 -430.22557617 762.80083496 -429.79443359 761.89331055 C-428.86208845 759.92928517 -427.93088613 757.96471732 -427 756 C-424.22323598 758.49199465 -422.52049398 761.2616753 -420.64453125 764.47265625 C-419.71157227 766.06883789 -419.71157227 766.06883789 -418.75976562 767.69726562 C-418.11716797 768.80779297 -417.47457031 769.91832031 -416.8125 771.0625 C-416.15830078 772.17689453 -415.50410156 773.29128906 -414.83007812 774.43945312 C-410 782.74476994 -410 782.74476994 -410 785 C-409.34 785 -408.68 785 -408 785 C-408.38671875 783.94425781 -408.7734375 782.88851562 -409.171875 781.80078125 C-422.44543753 744.5750538 -421.70943357 705.7324287 -405.05078125 669.71484375 C-399.88483429 658.91378189 -393.8782385 648.68100736 -386.5625 639.1875 C-383.18171104 634.62210388 -381.69930421 631.71321997 -382 626 C-383.33153266 623.69495956 -383.33153266 623.69495956 -385 622 C-385 621.01 -385 620.02 -385 619 C-384.28158936 618.60321045 -383.56317871 618.2064209 -382.82299805 617.79760742 C-375.72354237 613.87334494 -368.63265095 609.93412837 -361.54980469 605.97998047 C-359.32072828 604.73563691 -357.08949549 603.49553129 -354.85644531 602.25830078 C-352.16864114 600.7667472 -349.48938413 599.26103858 -346.8125 597.75 C-346.01223389 597.30938232 -345.21196777 596.86876465 -344.38745117 596.41479492 C-342.5403109 595.36185671 -340.76045786 594.19222237 -339 593 C-339 589.61976483 -339.87455622 587.16531063 -341 584 C-337.1936543 584.67170806 -333.64793184 585.72746564 -330 587 C-341.20902001 575.86260313 -355.81523601 569.44761999 -370 563 C-366.04 571.415 -366.04 571.415 -362 580 C-362.99 580.33 -363.98 580.66 -365 581 C-366.75146484 580.08227539 -366.75146484 580.08227539 -368.7109375 578.59765625 C-369.82214966 577.76741943 -369.82214966 577.76741943 -370.95581055 576.92041016 C-371.75414307 576.3072998 -372.55247559 575.69418945 -373.375 575.0625 C-374.61213745 574.13123291 -374.61213745 574.13123291 -375.87426758 573.18115234 C-378.59107397 571.13139509 -381.29578142 569.06632926 -384 567 C-385.97486327 565.5007788 -387.95012771 564.00208589 -389.92578125 562.50390625 C-394.95981234 558.68136547 -399.98344856 554.84544538 -405 551 C-404.25561083 554.1385057 -403.24162641 557.02009661 -402 560 C-411.9390285 560.64819751 -420.35029262 557.26533869 -428 551 C-434.21505323 545.30711312 -437.46858521 538.57962199 -441 531 C-440.67 535.95 -440.34 540.9 -440 546 C-440.66 546 -441.32 546 -442 546 C-456.33943933 526.74418148 -455.43221375 503.21495021 -455.1875 480.375 C-455.17241499 477.90365406 -455.15873339 475.43229913 -455.14648438 472.9609375 C-455.1138069 466.97375861 -455.06391475 460.98692276 -455 455 C-455.99 455 -456.98 455 -458 455 C-458 469.52 -458 484.04 -458 499 C-459.65 499 -461.3 499 -463 499 C-463.65435327 494.93882623 -464.29685082 490.87585624 -464.9375 486.8125 C-465.11990234 485.68134766 -465.30230469 484.55019531 -465.49023438 483.38476562 C-472.24698123 440.26443572 -466.51625506 396.35997719 -440.40454102 360.3425293 C-435.30406331 353.57310039 -429.87193285 347.11490938 -424 341 C-423.14921875 340.09765625 -422.2984375 339.1953125 -421.421875 338.265625 C-415.07974373 331.70604923 -408.42989656 326.25149757 -401 321 C-424.42851668 331.77850397 -441.45641567 348.16928796 -454.72265625 370.05078125 C-455.14417969 370.69402344 -455.56570313 371.33726562 -456 372 C-456.33 372 -456.66 372 -457 372 C-456.27026124 351.93218423 -444.86838497 333.71577551 -431 320 C-430.13503906 319.12472656 -429.27007813 318.24945312 -428.37890625 317.34765625 C-413.62201434 303.11701309 -393.99080188 294.98512253 -375 288 C-380.28 288.66 -385.56 289.32 -391 290 C-391 289.34 -391 288.68 -391 288 C-378.71361081 282.75808353 -366.34825961 279.91082242 -353 279 C-354.32 278.34 -355.64 277.68 -357 277 C-354.59971086 274.59971086 -348.08327168 275.63191373 -344.72680664 275.60180664 C-335.99839422 275.71857743 -328.81799201 278.09100399 -321 282 C-313.97603995 283.02166692 -310.7220085 280.80597739 -304.99609375 276.8828125 C-284.809753 264.19726329 -259.41077066 265.59077482 -237 270 C-229.27317886 271.76785133 -221.62596283 273.84194571 -214 276 C-214 276.33 -214 276.66 -214 277 C-222.12869506 277.08954499 -230.20172917 277.13421226 -238.3125 276.5 C-252.91426538 275.44482461 -266.73972536 275.37011191 -281 279 C-280.30664551 279.01458252 -279.61329102 279.02916504 -278.89892578 279.04418945 C-264.71272222 279.37603733 -250.88499034 279.94741676 -237 283 C-235.72253906 283.27714844 -234.44507813 283.55429687 -233.12890625 283.83984375 C-214.30193101 288.40455263 -196.71881173 297.44652556 -182 310 C-180.989375 310.763125 -179.97875 311.52625 -178.9375 312.3125 C-168.55465184 321.8117015 -159.70152667 334.3506204 -156 348 C-156.66 348 -157.32 348 -158 348 C-159.234375 346.70703125 -159.234375 346.70703125 -160.75 344.8125 C-172.29819987 331.30373617 -186.64141595 319.1615921 -203 312 C-202.38253906 312.49886719 -201.76507812 312.99773437 -201.12890625 313.51171875 C-186.6575096 325.78046751 -179.09009746 341.56912485 -174.1875 359.625 C-173.70035522 361.37876953 -173.70035522 361.37876953 -173.20336914 363.16796875 C-172.31418239 366.39724246 -171.43824051 369.62939901 -170.57202148 372.86486816 C-169.96681031 375.12388408 -169.35745343 377.38176095 -168.74804688 379.63964844 C-167.67169486 383.63732408 -166.60963026 387.63857389 -165.55776978 391.64276123 C-165.14573905 393.20861988 -164.73102343 394.7737746 -164.31356812 396.3381958 C-163.72921055 398.53554455 -163.15776184 400.73585324 -162.58984375 402.9375 C-162.25847412 404.20464844 -161.92710449 405.47179687 -161.58569336 406.77734375 C-161.04969625 409.72655669 -160.9423653 411.24971897 -162 414 C-162.66 414 -163.32 414 -164 414 C-164.46897705 413.14768799 -164.9379541 412.29537598 -165.42114258 411.41723633 C-167.17018899 408.23913908 -168.9204822 405.06172992 -170.67114258 401.88452148 C-171.42701406 400.51231158 -172.18255249 399.13991815 -172.93774414 397.76733398 C-174.02661913 395.78840956 -175.11671124 393.81015981 -176.20703125 391.83203125 C-176.54152786 391.22349808 -176.87602448 390.6149649 -177.22065735 389.98799133 C-179.0808489 386.61620212 -180.99645026 383.28864118 -183 380 C-180.80186197 388.0678786 -177.81540547 395.7158565 -174.625 403.4375 C-174.15578125 404.58798828 -173.6865625 405.73847656 -173.203125 406.92382812 C-170.98861955 412.32244983 -168.71446961 417.67380182 -166.26171875 422.96875 C-160.17939177 436.21349973 -159.50598565 448.17519314 -164 462 C-165.80068508 466.38738348 -167.95222892 470.3426747 -171 474 C-174 473 -174 473 -174.9831543 471.05053711 C-175.26070557 470.2178833 -175.53825684 469.38522949 -175.82421875 468.52734375 C-176.28344727 467.17866211 -176.28344727 467.17866211 -176.75195312 465.80273438 C-177.06068359 464.85720703 -177.36941406 463.91167969 -177.6875 462.9375 C-178.00783203 461.98810547 -178.32816406 461.03871094 -178.65820312 460.06054688 C-179.44946823 457.71037143 -180.22949395 455.35704662 -181 453 C-180.93143799 453.76658936 -180.86287598 454.53317871 -180.79223633 455.32299805 C-180.07908237 463.82530001 -179.75411181 472.28174764 -179.6875 480.8125 C-179.65849609 482.06998047 -179.62949219 483.32746094 -179.59960938 484.62304688 C-179.55264681 491.48319438 -179.54872192 497.4617297 -184 503 C-186.578125 505.09375 -186.578125 505.09375 -189.25 506.5 C-190.14203125 506.9846875 -191.0340625 507.469375 -191.953125 507.96875 C-192.62859375 508.3090625 -193.3040625 508.649375 -194 509 C-191.69 511.64 -189.38 514.28 -187 517 C-184.41194906 514.41194906 -182.83007615 512.3190424 -180.9375 509.25 C-176.4358184 502.06807192 -171.73828686 495.0271493 -167 488 C-166.54012695 487.31647461 -166.08025391 486.63294922 -165.60644531 485.92871094 C-158.37115689 475.19845275 -150.6986672 465.11910923 -142.25 455.3125 C-128.4568172 439.28140121 -117.08896843 423.69158251 -109 404 C-107.35 404.33 -105.7 404.66 -104 405 C-103.83673218 403.91162842 -103.83673218 403.91162842 -103.67016602 402.80126953 C-102.49967929 395.36053138 -100.91377218 388.14105461 -98.9375 380.875 C-98.63368408 379.75754395 -98.32986816 378.64008789 -98.0168457 377.48876953 C-92.24234121 356.71915737 -84.56610474 336.76077172 -76 317 C-75.63003906 316.14438477 -75.26007812 315.28876953 -74.87890625 314.40722656 C-72.9392002 309.92920554 -70.98076674 305.46000458 -69 301 C-68.34 301 -67.68 301 -67 301 C-65.02 307.27 -63.04 313.54 -61 320 C-61.01160156 316.87402344 -61.02320313 313.74804688 -61.03515625 310.52734375 C-61.0430122 307.4125173 -61.0490515 304.29769206 -61.05493164 301.18286133 C-61.0598812 299.06046026 -61.0666425 296.93806244 -61.07543945 294.81567383 C-61.23002659 256.48715716 -61.23002659 256.48715716 -58.75 238 C-58.62069092 237.01837891 -58.49138184 236.03675781 -58.3581543 235.02539062 C-54.8079882 209.46582791 -47.4709539 185.86268048 -36.43237305 162.56665039 C-27.3948615 143.39968409 -21.57454885 123.38474494 -16 103 C-18.03880693 105.03880693 -19.04803515 108.04587494 -20.30859375 110.625 C-20.97958205 111.98449134 -21.65081351 113.34386268 -22.32226562 114.703125 C-23.38261856 116.85483677 -24.44111891 119.00739651 -25.49536133 121.16210938 C-26.51108111 123.23576191 -27.53423583 125.30560404 -28.55859375 127.375 C-29.03056435 128.34687256 -29.03056435 128.34687256 -29.5120697 129.33837891 C-31.77297259 133.8864863 -31.77297259 133.8864863 -34 135 C-34.02920691 133.06260814 -34.04727793 131.12505221 -34.0625 129.1875 C-34.07071777 128.21985718 -34.07071777 128.21985718 -34.07910156 127.23266602 C-34.08535214 122.63588402 -33.90911237 118.07331285 -33.63671875 113.484375 C-33.57411865 112.32526611 -33.51151855 111.16615723 -33.44702148 109.97192383 C-33.31876643 107.67112041 -33.17208708 105.37124586 -33.00415039 103.07299805 C-32.20896307 88.04384747 -38.35453876 75.28871623 -44.43920898 61.95361328 C-55.351713 37.92714745 -55.351713 37.92714745 -51 25 C-45.18521603 12.16833729 -37.81742531 2.85684566 -24.5 -2.375 C-16.1300389 -3.86963591 -7.84325157 -3.51710278 0 0 Z M-443 527 C-442 529 -442 529 -442 529 Z M-247 644 C-246 646 -246 646 -246 646 Z M-565 838 C-564 840 -564 840 -564 840 Z " fill="#000000" transform="translate(1073,199)"/>
<path d="M0 0 C26.73 0 53.46 0 81 0 C81 1.32 81 2.64 81 4 C80.34773438 4.09796875 79.69546875 4.1959375 79.0234375 4.296875 C73.51346698 5.23958382 69.31462249 6.21155098 65 10 C62.25409489 14.5240768 61.61440628 17.94073395 61.56762695 23.19873047 C61.55221627 24.25546306 61.55221627 24.25546306 61.53649426 25.33354378 C61.50680631 27.5948477 61.49709621 29.85571632 61.48828125 32.1171875 C61.47280141 33.52092995 61.45600209 34.92465849 61.43786621 36.32836914 C61.38011207 41.51042609 61.34782579 46.69274163 61.3125 51.875 C61.209375 63.46625 61.10625 75.0575 61 87 C88.72 87 116.44 87 145 87 C144.938125 75.45 144.87625 63.9 144.8125 52 C144.80581299 48.36613281 144.79912598 44.73226563 144.79223633 40.98828125 C144.76232295 37.70321231 144.76232295 37.70321231 144.72587585 34.41821289 C144.71288065 32.96611724 144.70951627 31.51391435 144.71403503 30.06176758 C144.91619888 18.04469895 144.91619888 18.04469895 139 8 C134.5150102 4.91034036 130.30316497 4.45716939 125 4 C125 2.68 125 1.36 125 0 C151.73 0 178.46 0 206 0 C206 1.32 206 2.64 206 4 C205.27554688 4.08636719 204.55109375 4.17273437 203.8046875 4.26171875 C197.33578307 5.20186619 193.4894733 6.1651826 189 11 C186.7858712 14.44388756 186.74448845 17.31458461 186.73257446 21.36300659 C186.72404449 22.67244232 186.71551453 23.98187805 186.70672607 25.33099365 C186.70742509 26.78039563 186.70834814 28.22979751 186.70947266 29.67919922 C186.70348771 31.20698373 186.69668224 32.73476522 186.68911743 34.26254272 C186.67144683 38.41135291 186.66676161 42.5600806 186.66548586 46.70892477 C186.66406431 49.30138221 186.65979466 51.89381867 186.65449142 54.4862709 C186.63598773 63.53171369 186.62782125 72.57709751 186.62939453 81.62255859 C186.63059607 90.05230211 186.60949231 98.48178965 186.5779072 106.91146839 C186.55174998 114.15066096 186.541027 121.3897699 186.54230535 128.62900937 C186.54281514 132.95187002 186.53712246 137.27450318 186.51594925 141.59731674 C186.49657604 145.6636549 186.49643586 149.72954835 186.51098251 153.79590225 C186.51307287 155.28662007 186.50835614 156.77736566 186.4962616 158.26803589 C186.48079778 160.30630965 186.49252125 162.34473518 186.50552368 164.38302612 C186.50443415 165.52269773 186.50334461 166.66236935 186.50222206 167.83657646 C187.24358202 172.54798562 189.47029529 175.74024318 193.125 178.75 C197.27737035 180.55537841 201.54849687 181.26528589 206 182 C206 182.99 206 183.98 206 185 C179.27 185 152.54 185 125 185 C125 184.01 125 183.02 125 182 C125.66386719 181.89042969 126.32773437 181.78085938 127.01171875 181.66796875 C134.02851484 180.55133985 134.02851484 180.55133985 140 177 C145.06494421 169.47696399 144.60576483 161.65296378 144.609375 152.90625 C144.62339264 151.52439497 144.63917526 150.1425567 144.65673828 148.76074219 C144.70914984 143.67400314 144.72757234 138.58695961 144.75 133.5 C144.8325 122.115 144.915 110.73 145 99 C117.28 99 89.56 99 61 99 C61.103125 110.42625 61.20625 121.8525 61.3125 133.625 C61.33739502 137.22486816 61.36229004 140.82473633 61.38793945 144.53369141 C61.42452979 147.77753534 61.42452979 147.77753534 61.4650116 151.02133179 C61.48109742 152.4593513 61.49142876 153.89744254 61.49711609 155.33554077 C61.50690287 157.52176925 61.53529289 159.70707005 61.56762695 161.89306641 C61.58428154 163.73839462 61.58428154 163.73839462 61.60127258 165.6210022 C62.2086379 170.76809265 64.06070842 173.99197976 67.5625 177.75 C71.49499079 180.84621427 76.1536204 181.35828571 81 182 C81 182.99 81 183.98 81 185 C54.27 185 27.54 185 0 185 C0 184.01 0 183.02 0 182 C0.65226562 181.90203125 1.30453125 181.8040625 1.9765625 181.703125 C8.6053881 180.56898965 13.61682279 179.20496246 17.8125 173.5625 C19.90114657 169.05542055 20.12674367 164.79471419 20.14044189 159.87187195 C20.14615204 158.63967926 20.15186218 157.40748657 20.15774536 156.13795471 C20.15899055 154.78036509 20.16011568 153.42277536 20.16113281 152.06518555 C20.16576439 150.62916945 20.17078951 149.19315457 20.17617798 147.75714111 C20.1892704 143.86239661 20.19574064 139.96766932 20.20018864 136.07290626 C20.20312419 133.63739082 20.20722988 131.20188004 20.21169281 128.76636696 C20.22535882 121.13962632 20.23503012 113.51289637 20.2388947 105.88614434 C20.24337476 97.09417801 20.26092397 88.30236721 20.2898953 79.51044816 C20.31153612 72.70602912 20.32160025 65.90165377 20.32293582 59.09720069 C20.32398204 55.03701115 20.32985084 50.97696799 20.34775543 46.9168148 C20.36427797 43.09593455 20.36637149 39.27531007 20.35761642 35.45440674 C20.35684831 34.05644354 20.36115894 32.65846635 20.37107468 31.2605381 C20.4848864 18.75539237 20.4848864 18.75539237 14.5 8.125 C10.31216621 4.96818113 5.07302697 4.60479147 0 4 C0 2.68 0 1.36 0 0 Z " fill="#000000" transform="translate(402,1219)"/>
<path d="M0 0 C12.38815238 -0.04655037 24.77628359 -0.08198379 37.16450596 -0.10362434 C42.91821467 -0.11401605 48.67186309 -0.12809005 54.42553711 -0.15087891 C59.98875958 -0.17277297 65.55192443 -0.18460322 71.11518669 -0.18975449 C73.22681522 -0.19342073 75.33844096 -0.20057904 77.45004463 -0.21146011 C98.57612642 -0.31589174 119.02308687 0.41616081 137 13 C138.051875 13.721875 139.10375 14.44375 140.1875 15.1875 C151.3369099 26.3369099 153.93518943 39.70470458 154 55 C153.5640773 67.20583569 147.43543354 80.59737724 138.91015625 89.39453125 C132.61453201 94.68594549 124.35658537 99.66521341 116 100.1875 C115.01 100.0946875 115.01 100.0946875 114 100 C114 100.66 114 101.32 114 102 C114.88816406 102.24621094 115.77632812 102.49242187 116.69140625 102.74609375 C120.21018886 104.07965835 122.18175207 105.53007038 124.9375 108.0625 C125.73027344 108.77535156 126.52304688 109.48820312 127.33984375 110.22265625 C133.81552657 116.98361144 138.78766459 124.62351729 143.6875 132.5625 C149.67273824 142.09969926 156.01314975 151.17513312 163 160 C163.47034668 160.60730957 163.94069336 161.21461914 164.42529297 161.84033203 C173.3459623 173.31680238 181.50678829 179.16112348 196 182 C196 182.99 196 183.98 196 185 C190.31155152 185.07519302 184.62340393 185.12908497 178.93457031 185.16479492 C177.00678456 185.1797104 175.07903167 185.20005005 173.15136719 185.22631836 C153.52365243 185.48672769 133.53496976 184.56765918 118 171 C117.43023438 170.54625 116.86046875 170.0925 116.2734375 169.625 C103.74686809 158.64280216 97.44981392 138.74318762 90.4921875 124.12792969 C88.49819931 119.94812329 86.48499493 115.77884599 84.4375 111.625 C83.85871094 110.44164062 83.27992187 109.25828125 82.68359375 108.0390625 C79.50142531 102.29491621 76.1299279 98.2278164 69.6875 96.3125 C69.130625 96.209375 68.57375 96.10625 68 96 C68 94.68 68 93.36 68 92 C69.18335938 91.91363281 70.36671875 91.82726563 71.5859375 91.73828125 C82.12127109 90.85002769 90.41374125 89.59314608 98.8125 82.6875 C108.97120918 70.20680015 110.42851119 56.69099963 109 41 C107.70832259 32.80967914 104.79795008 24.77560207 98.1484375 19.54296875 C89.85973921 13.99050098 81.80994855 13.64099064 72.0625 13.375 C70.90169922 13.33632812 69.74089844 13.29765625 68.54492188 13.2578125 C65.69676831 13.16404613 62.84861262 13.07834083 60 13 C60.08392262 32.82789534 60.17906441 52.65570666 60.28752708 72.48348331 C60.33762828 81.69006251 60.38407151 90.89663291 60.421875 100.10327148 C60.45483752 108.12867534 60.4946923 116.15401046 60.54279006 124.1793384 C60.56801268 128.4278603 60.58980646 132.67633686 60.60334396 136.92491341 C60.6162028 140.92629804 60.63829824 144.92752681 60.66738319 148.92882538 C60.67642914 150.39490763 60.68214222 151.86101495 60.68421364 153.32712364 C60.68755717 155.33470041 60.70424803 157.34224152 60.7215271 159.3497467 C60.72705786 160.47156877 60.73258862 161.59339083 60.73828697 162.7492075 C61.22608993 168.80831053 62.58914774 173.70835996 67 178 C71.62039314 180.44096241 75.81867222 181.47129308 81 182 C81 182.99 81 183.98 81 185 C54.27 185 27.54 185 0 185 C0 184.01 0 183.02 0 182 C0.83144531 181.79503906 1.66289063 181.59007812 2.51953125 181.37890625 C3.60621094 181.10949219 4.69289063 180.84007812 5.8125 180.5625 C6.89144531 180.29566406 7.97039062 180.02882813 9.08203125 179.75390625 C13.22743727 178.97335328 13.22743727 178.97335328 16.0625 176.25 C16.371875 175.5075 16.68125 174.765 17 174 C17.51573043 172.88835212 17.51573043 172.88835212 18.04187965 171.75424671 C19.14823673 168.57387343 19.25722569 166.04752596 19.26742554 162.68205261 C19.27595551 161.40778915 19.28448547 160.1335257 19.29327393 158.82064819 C19.29257496 157.4158324 19.29165193 156.01101669 19.29052734 154.60620117 C19.29651433 153.12092247 19.30332027 151.63564688 19.31088257 150.15037537 C19.32853351 146.12132049 19.33323759 142.0923506 19.33451414 138.06326079 C19.33593693 135.54398388 19.34020896 133.02472849 19.34550858 130.50545692 C19.36400656 121.7105739 19.37217957 112.91575145 19.37060547 104.12084961 C19.36940445 95.9325376 19.39049949 87.74448935 19.4220928 79.55624408 C19.44827679 72.51827197 19.45897186 65.48038589 19.45769465 58.44236547 C19.4571856 54.2424141 19.46283718 50.04269712 19.48405075 45.84279442 C19.50346882 41.89052072 19.50353355 37.93870413 19.48901749 33.98641396 C19.48693262 32.5400742 19.49161111 31.09370557 19.5037384 29.64741516 C19.56587499 21.72039471 19.50117351 15.68822277 15 9 C10.39261048 5.18407644 5.86768996 4.41176772 0 4 C0 2.68 0 1.36 0 0 Z " fill="#000000" transform="translate(1253,1219)"/>
<path d="M0 0 C0.89428711 0.00862061 1.78857422 0.01724121 2.70996094 0.02612305 C5.015625 0.30078125 5.015625 0.30078125 8.015625 2.30078125 C8.94225502 9.46201978 5.05327486 14.71082428 1.015625 20.30078125 C-12.87951758 38.23391885 -32.95156253 48.40570666 -52.546875 58.98828125 C-53.48454712 59.49705811 -53.48454712 59.49705811 -54.44116211 60.01611328 C-58.74231895 62.30078125 -58.74231895 62.30078125 -60.984375 62.30078125 C-61.12516479 62.86738968 -61.26595459 63.43399811 -61.41101074 64.01777649 C-63.95659261 73.80599191 -67.27245751 83.33320743 -70.515625 92.90625 C-71.15457753 94.79942363 -71.79328584 96.69267969 -72.4317627 98.58601379 C-73.76456104 102.53611628 -75.09945738 106.48550095 -76.43603516 110.43432617 C-78.14382785 115.4800449 -79.8476307 120.52709921 -81.55002594 125.57464123 C-82.86663817 129.47762413 -84.18470873 133.38011322 -85.50328064 137.28243446 C-86.13188602 139.14295831 -86.76019655 141.00358181 -87.38819885 142.86430931 C-88.26718928 145.46754299 -89.14798184 148.07015995 -90.02929688 150.67260742 C-90.28496933 151.43072723 -90.54064178 152.18884705 -90.80406189 152.96994019 C-91.52109984 155.08376338 -92.24829643 157.19351629 -92.984375 159.30078125 C-93.24308065 160.04178385 -93.50178631 160.78278645 -93.76833153 161.54624367 C-95.24860827 165.65657761 -96.15765132 168.17949207 -99.9609375 170.48828125 C-100.71375 170.95878906 -101.4665625 171.42929688 -102.2421875 171.9140625 C-103.02335937 172.37167969 -103.80453125 172.82929688 -104.609375 173.30078125 C-105.39828125 173.78933594 -106.1871875 174.27789062 -107 174.78125 C-112.73772321 178.30078125 -112.73772321 178.30078125 -113.984375 178.30078125 C-113.37889826 167.99594448 -112.01313797 157.89445897 -110.48046875 147.6953125 C-110.23484087 146.03722962 -109.98965547 144.37908113 -109.74488831 142.72087097 C-109.10596718 138.39918908 -108.46194726 134.07828403 -107.81652832 129.75756836 C-106.77889806 122.80515674 -105.74915476 115.85157278 -104.71943855 108.89798546 C-104.35983041 106.47470426 -103.99801619 104.05176037 -103.635849 101.62886047 C-103.41661258 100.15467979 -103.19741776 98.68049292 -102.97827148 97.20629883 C-102.78587387 95.91758377 -102.59347626 94.62886871 -102.39524841 93.30110168 C-101.93914937 90.47525069 -101.93914937 90.47525069 -101.984375 88.30078125 C-118.92408953 97.36672939 -135.85318303 106.45195554 -152.76660156 115.56689453 C-157.08892751 117.89596576 -161.41197191 120.22370141 -165.73510742 122.55126953 C-167.8864162 123.70960439 -170.0376221 124.86813035 -172.1887207 126.02685547 C-177.25684453 128.75670413 -182.32580428 131.48496579 -187.3977356 134.20773315 C-189.20220927 135.17652239 -191.00641796 136.1458033 -192.81054688 137.11523438 C-195.08085246 138.33496718 -197.35166058 139.55376524 -199.62304688 140.77148438 C-200.64591797 141.32126953 -201.66878906 141.87105469 -202.72265625 142.4375 C-203.62024658 142.91920654 -204.51783691 143.40091309 -205.44262695 143.8972168 C-208.03293198 145.27194519 -208.03293198 145.27194519 -210.50073242 147.04223633 C-212.984375 148.30078125 -212.984375 148.30078125 -215.47070312 148.17749023 C-218.33212171 147.17949547 -220.63839643 145.89036196 -223.203125 144.2734375 C-224.20786865 143.65057861 -225.2126123 143.02771973 -226.24780273 142.38598633 C-227.31587158 141.71849365 -228.38394043 141.05100098 -229.484375 140.36328125 C-243.76242384 131.61195036 -258.39590772 124.39185715 -273.984375 118.30078125 C-273.984375 117.64078125 -273.984375 116.98078125 -273.984375 116.30078125 C-269.93046073 114.59210664 -265.86507309 112.91263055 -261.796875 111.23828125 C-260.64638672 110.75294922 -259.49589844 110.26761719 -258.31054688 109.76757812 C-257.19873047 109.31318359 -256.08691406 108.85878906 -254.94140625 108.390625 C-253.92022705 107.96644287 -252.89904785 107.54226074 -251.84692383 107.10522461 C-246.25135391 105.53273822 -242.08817183 108.03222554 -237.109375 110.49609375 C-235.78147327 111.13588028 -234.45334118 111.77518888 -233.125 112.4140625 C-231.04857842 113.42029049 -228.97446063 114.43066163 -226.90429688 115.44970703 C-224.89501318 116.43577967 -222.87806404 117.40445469 -220.859375 118.37109375 C-220.24465332 118.67935089 -219.62993164 118.98760803 -218.99658203 119.3052063 C-216.27633839 120.5958681 -214.32452647 121.32205229 -211.29443359 121.13256836 C-208.95165453 120.28899953 -207.18364802 119.35030978 -205.1484375 117.921875 C-204.42567627 117.42091309 -203.70291504 116.91995117 -202.95825195 116.40380859 C-202.18312256 115.85418457 -201.40799316 115.30456055 -200.609375 114.73828125 C-199.78719482 114.1654541 -198.96501465 113.59262695 -198.11791992 113.00244141 C-196.33870524 111.76179353 -194.56202293 110.5175078 -192.78759766 109.27001953 C-188.95005104 106.57417812 -185.09735811 103.90033966 -181.24560547 101.22485352 C-178.29874878 99.17708334 -175.35431895 97.12585969 -172.41015625 95.07421875 C-167.94628237 91.96629201 -163.47073214 88.87613508 -158.984375 85.80078125 C-152.2784108 81.20230434 -145.59756048 76.56809243 -138.921875 71.92578125 C-137.94541016 71.24708984 -136.96894531 70.56839844 -135.96289062 69.86914062 C-130.94661749 66.37820279 -125.94768089 62.8666515 -120.984375 59.30078125 C-122.67466629 57.61048996 -124.86916639 57.9722112 -127.19178772 57.80088806 C-128.88509468 57.67261375 -128.88509468 57.67261375 -130.61260986 57.54174805 C-131.86201355 57.45183594 -133.11141724 57.36192383 -134.39868164 57.26928711 C-135.70580612 57.17160538 -137.0129306 57.07392365 -138.35966492 56.97328186 C-141.95423629 56.70476381 -145.54920434 56.44193879 -149.14426732 56.18009639 C-152.89748219 55.90577458 -156.65031094 55.62627101 -160.40318298 55.3473053 C-167.51440721 54.81949775 -174.62596872 54.29638445 -181.73766178 53.77493626 C-189.83211588 53.1812012 -197.92618246 52.58226526 -206.02021992 51.98288143 C-222.6745125 50.7497069 -239.32928204 49.52309942 -255.984375 48.30078125 C-255.984375 47.64078125 -255.984375 46.98078125 -255.984375 46.30078125 C-250.37044322 44.45082272 -244.75115276 42.61850704 -239.12646484 40.80151367 C-237.21836329 40.18250014 -235.31174365 39.55889734 -233.40673828 38.93041992 C-230.65004228 38.02188115 -227.88823401 37.13061469 -225.125 36.2421875 C-224.29011047 35.96298965 -223.45522095 35.68379181 -222.59503174 35.39613342 C-210.59539678 31.58827068 -197.99774259 32.12568029 -185.53515625 32.01953125 C-183.84624793 32.00191256 -182.15734412 31.9838565 -180.46844482 31.96539307 C-176.9106314 31.92700385 -173.35280517 31.89086693 -169.79495239 31.85632324 C-164.27327418 31.80182958 -158.7517545 31.73667534 -153.23022461 31.66894531 C-152.32074349 31.65783848 -151.41126238 31.64673164 -150.47422123 31.63528824 C-148.64916967 31.61298686 -146.82411836 31.59066463 -144.99906731 31.56832123 C-133.66181686 31.42997504 -122.32484321 31.29668055 -110.98701477 31.21655273 C-107.16756203 31.18568983 -103.34854658 31.1368978 -99.52938843 31.08081055 C-97.8984695 31.06108242 -96.26742029 31.04991285 -94.63638306 31.0480957 C-85.61922526 31.03568014 -78.68554882 30.30133364 -70.984375 25.30078125 C-70.13190186 24.77500488 -69.27942871 24.24922852 -68.40112305 23.70751953 C-65.67604295 22.00207792 -62.9860923 20.24963855 -60.296875 18.48828125 C-39.8933644 5.38971011 -24.56605869 -0.23833188 0 0 Z " fill="#000000" transform="translate(1172.984375,-0.30078125)"/>
<path d="M0 0 C0 15.51 0 31.02 0 47 C-0.99 46.67 -1.98 46.34 -3 46 C-3.17015625 44.98679687 -3.3403125 43.97359375 -3.515625 42.9296875 C-3.75968113 41.57799199 -4.00451432 40.22643662 -4.25 38.875 C-4.35957031 38.20984375 -4.46914063 37.5446875 -4.58203125 36.859375 C-5.66538348 31.04348409 -7.95701117 26.932557 -12.3125 22.8125 C-19.41175588 18.02462975 -25.21456577 17.53856923 -33.62109375 17.48828125 C-34.59695435 17.47164429 -35.57281494 17.45500732 -36.57824707 17.43786621 C-40.19778239 17.38035524 -43.81768077 17.34788626 -47.4375 17.3125 C-59.5959375 17.1578125 -59.5959375 17.1578125 -72 17 C-72 41.75 -72 66.5 -72 92 C-62.595 91.87625 -62.595 91.87625 -53 91.75 C-51.03675781 91.73420898 -49.07351563 91.71841797 -47.05078125 91.70214844 C-45.47132508 91.67274703 -43.89189461 91.64191563 -42.3125 91.609375 C-41.11077148 91.60768311 -41.11077148 91.60768311 -39.88476562 91.60595703 C-33.27350886 91.4402715 -28.06017486 89.58756098 -22.9765625 85.2890625 C-18.28860055 79.51717871 -16.88796541 74.39971178 -16 67 C-14.68 67 -13.36 67 -12 67 C-12 87.46 -12 107.92 -12 129 C-13.32 129 -14.64 129 -16 129 C-16.09796875 128.27554687 -16.1959375 127.55109375 -16.296875 126.8046875 C-17.47604695 119.18073094 -19.19432452 114.68368959 -24.875 109.25 C-30.64935661 105.09246324 -36.02242088 104.68483767 -42.8984375 104.5859375 C-43.63940674 104.56829346 -44.38037598 104.55064941 -45.14379883 104.5324707 C-47.88731989 104.46984349 -50.63119027 104.42335412 -53.375 104.375 C-62.594375 104.189375 -62.594375 104.189375 -72 104 C-72 128.09 -72 152.18 -72 177 C-65.338125 176.9175 -58.67625 176.835 -51.8125 176.75 C-49.73815674 176.73420898 -47.66381348 176.71841797 -45.52661133 176.70214844 C-29.58851738 176.47352226 -15.47448499 174.08458365 -3.3125 162.8125 C4.15872276 154.79759671 8.68563499 144.94042342 13 135 C13.99 135 14.98 135 16 135 C13.9714103 153.25730726 8.98493897 171.06777465 5 189 C-40.54 189 -86.08 189 -133 189 C-133 188.01 -133 187.02 -133 186 C-132.19175781 185.84144531 -131.38351562 185.68289063 -130.55078125 185.51953125 C-122.14330846 183.75269774 -122.14330846 183.75269774 -116 178 C-113.83237715 174.52591594 -113.74666201 171.72884947 -113.73930359 167.66822815 C-113.72867638 165.71452805 -113.72867638 165.71452805 -113.71783447 163.72135925 C-113.72012825 162.27981533 -113.72263794 160.83827173 -113.7253418 159.39672852 C-113.72099416 157.87717437 -113.71581083 156.35762242 -113.70985413 154.83807373 C-113.69645859 150.71204872 -113.69588606 146.58611528 -113.69841743 142.46007276 C-113.69948674 139.01567088 -113.69460479 135.57128755 -113.689812 132.12688965 C-113.67871494 124.00116428 -113.67828056 115.87548514 -113.68432617 107.74975586 C-113.69036739 99.36661295 -113.6780517 90.98363782 -113.6567561 82.60052353 C-113.63914436 75.40296119 -113.63313806 68.20545228 -113.63639385 61.00786918 C-113.6382075 56.70911882 -113.63556234 52.41048814 -113.62167931 48.11175728 C-113.60911247 44.06927914 -113.6110341 40.0270627 -113.62409019 35.98458862 C-113.62645802 34.50151926 -113.62371389 33.01843155 -113.61546707 31.53538322 C-113.60501644 29.50986469 -113.61489354 27.48427174 -113.6257782 25.45875549 C-113.62552659 23.7589269 -113.62552659 23.7589269 -113.62526989 22.02475834 C-114.13729147 17.8918064 -115.64074193 15.19349489 -118.76171875 12.453125 C-123.60045044 9.43014455 -127.29364629 8.30569752 -133 8 C-133 6.68 -133 5.36 -133 4 C-132.41507215 3.99761165 -131.83014431 3.99522329 -131.22749138 3.99276257 C-116.93548388 3.93339371 -102.64362987 3.85770583 -88.35180473 3.76428509 C-81.4401185 3.7194914 -74.52848191 3.68003988 -67.61669922 3.65356445 C-60.93813612 3.62796687 -54.25982553 3.58695332 -47.5813942 3.53681374 C-45.0419404 3.52021459 -42.50244815 3.50865727 -39.96294785 3.50238609 C-22.52638233 3.58098296 -22.52638233 3.58098296 -5.41531372 0.63825989 C-3 0 -3 0 0 0 Z " fill="#000000" transform="translate(863,1215)"/>
<path d="M0 0 C0 15.51 0 31.02 0 47 C-0.99 46.67 -1.98 46.34 -3 46 C-3.17015625 44.98679687 -3.3403125 43.97359375 -3.515625 42.9296875 C-3.75968113 41.57799199 -4.00451432 40.22643662 -4.25 38.875 C-4.35957031 38.20984375 -4.46914062 37.5446875 -4.58203125 36.859375 C-5.66538348 31.04348409 -7.95701117 26.932557 -12.3125 22.8125 C-19.41175588 18.02462975 -25.21456577 17.53856923 -33.62109375 17.48828125 C-34.59695435 17.47164429 -35.57281494 17.45500732 -36.57824707 17.43786621 C-40.19778239 17.38035524 -43.81768077 17.34788626 -47.4375 17.3125 C-59.5959375 17.1578125 -59.5959375 17.1578125 -72 17 C-72 41.75 -72 66.5 -72 92 C-62.595 91.87625 -62.595 91.87625 -53 91.75 C-51.03675781 91.73420898 -49.07351563 91.71841797 -47.05078125 91.70214844 C-45.47132508 91.67274703 -43.89189461 91.64191563 -42.3125 91.609375 C-41.11077148 91.60768311 -41.11077148 91.60768311 -39.88476562 91.60595703 C-34.76768964 91.47771735 -31.17644271 90.48434931 -26.71557617 87.95123291 C-25 87 -25 87 -22 86 C-20.88064927 84.35369807 -20.88064927 84.35369807 -20 82 C-19.75121094 81.40703125 -19.50242187 80.8140625 -19.24609375 80.203125 C-17.47294053 75.78309088 -16.49320063 71.73472608 -16 67 C-14.68 67 -13.36 67 -12 67 C-12 87.46 -12 107.92 -12 129 C-13.32 129 -14.64 129 -16 129 C-16.09796875 128.27554687 -16.1959375 127.55109375 -16.296875 126.8046875 C-17.47604695 119.18073094 -19.19432452 114.68368959 -24.875 109.25 C-30.64935661 105.09246324 -36.02242088 104.68483767 -42.8984375 104.5859375 C-43.63940674 104.56829346 -44.38037598 104.55064941 -45.14379883 104.5324707 C-47.88731989 104.46984349 -50.63119027 104.42335412 -53.375 104.375 C-62.594375 104.189375 -62.594375 104.189375 -72 104 C-72 128.09 -72 152.18 -72 177 C-65.338125 176.9175 -58.67625 176.835 -51.8125 176.75 C-49.73815674 176.73420898 -47.66381348 176.71841797 -45.52661133 176.70214844 C-29.24097979 176.46844224 -15.35478885 173.84085666 -2.875 162.5 C4.36541536 154.86385343 9.01735888 144.62471604 13 135 C13.99 135 14.98 135 16 135 C13.9714103 153.25730726 8.98493897 171.06777465 5 189 C-40.54 189 -86.08 189 -133 189 C-133 188.01 -133 187.02 -133 186 C-132.19175781 185.84144531 -131.38351562 185.68289063 -130.55078125 185.51953125 C-122.14330846 183.75269774 -122.14330846 183.75269774 -116 178 C-113.83237715 174.52591594 -113.74666201 171.72884947 -113.73930359 167.66822815 C-113.72867638 165.71452805 -113.72867638 165.71452805 -113.71783447 163.72135925 C-113.72012825 162.27981533 -113.72263794 160.83827173 -113.7253418 159.39672852 C-113.72099416 157.87717437 -113.71581083 156.35762242 -113.70985413 154.83807373 C-113.69645859 150.71204872 -113.69588606 146.58611528 -113.69841743 142.46007276 C-113.69948674 139.01567088 -113.69460479 135.57128755 -113.689812 132.12688965 C-113.67871494 124.00116428 -113.67828056 115.87548514 -113.68432617 107.74975586 C-113.69036739 99.36661295 -113.6780517 90.98363782 -113.6567561 82.60052353 C-113.63914436 75.40296119 -113.63313806 68.20545228 -113.63639385 61.00786918 C-113.6382075 56.70911882 -113.63556234 52.41048814 -113.62167931 48.11175728 C-113.60911247 44.06927914 -113.6110341 40.0270627 -113.62409019 35.98458862 C-113.62645802 34.50151926 -113.62371389 33.01843155 -113.61546707 31.53538322 C-113.60501644 29.50986469 -113.61489354 27.48427174 -113.6257782 25.45875549 C-113.62552659 23.7589269 -113.62552659 23.7589269 -113.62526989 22.02475834 C-114.13729147 17.8918064 -115.64074193 15.19349489 -118.76171875 12.453125 C-123.60045044 9.43014455 -127.29364629 8.30569752 -133 8 C-133 6.68 -133 5.36 -133 4 C-132.41507215 3.99761165 -131.83014431 3.99522329 -131.22749138 3.99276257 C-116.93548388 3.93339371 -102.64362987 3.85770583 -88.35180473 3.76428509 C-81.4401185 3.7194914 -74.52848191 3.68003988 -67.61669922 3.65356445 C-60.93813612 3.62796687 -54.25982553 3.58695332 -47.5813942 3.53681374 C-45.0419404 3.52021459 -42.50244815 3.50865727 -39.96294785 3.50238609 C-22.52638233 3.58098296 -22.52638233 3.58098296 -5.41531372 0.63825989 C-3 0 -3 0 0 0 Z " fill="#000000" transform="translate(1220,1215)"/>
<path d="M0 0 C0.73664886 -0.00701431 1.47329773 -0.01402863 2.23226929 -0.02125549 C4.59631536 -0.03865991 6.96011097 -0.04510754 9.32421875 -0.046875 C10.13162506 -0.04754974 10.93903137 -0.04822449 11.77090454 -0.04891968 C23.743561 -0.0330071 35.33457705 0.30902996 47.01171875 3.203125 C47.74326172 3.38004883 48.47480469 3.55697266 49.22851562 3.73925781 C58.9557745 6.16478877 66.85881833 9.62667479 76.01171875 14.203125 C76.01171875 29.383125 76.01171875 44.563125 76.01171875 60.203125 C75.02171875 60.203125 74.03171875 60.203125 73.01171875 60.203125 C72.81126953 59.68516357 72.61082031 59.16720215 72.40429688 58.63354492 C65.38489854 40.70503063 57.32611676 25.83008946 39.07421875 17.45703125 C24.37039591 11.43671603 3.96945724 10.09393239 -10.98828125 16.203125 C-28.90873407 24.15101814 -39.24511722 36.60673764 -46.98828125 54.203125 C-52.04482968 67.57245118 -53.38191038 81.05248956 -53.36328125 95.265625 C-53.36306976 95.93922058 -53.36285828 96.61281616 -53.36264038 97.30682373 C-53.28668795 121.67279457 -47.66220358 145.73021988 -30.4375 163.94921875 C-17.74145953 175.6328158 -2.03793271 179.87842852 14.8515625 179.453125 C31.52937352 178.67506057 46.43310785 173.22262765 58.07421875 161.203125 C69.50156216 147.71841252 73.84787141 129.21809333 77.01171875 112.203125 C78.33171875 111.873125 79.65171875 111.543125 81.01171875 111.203125 C81.66955445 119.33246962 82.26252928 127.46399985 82.78027344 135.60351562 C82.92205465 137.80860236 83.0718324 140.01321549 83.23535156 142.21679688 C84.3155077 157.47192503 84.3155077 157.47192503 79.57421875 164.390625 C78.10993387 166.0465702 76.58928876 167.65472015 75.01171875 169.203125 C74.33753906 169.9146875 73.66335938 170.62625 72.96875 171.359375 C55.31194522 188.585526 31.00902199 192.56551572 7.33032227 192.50805664 C-12.94251893 192.17768441 -32.88774165 188.59363051 -50.98828125 179.203125 C-51.99632812 178.69007813 -53.004375 178.17703125 -54.04296875 177.6484375 C-62.15684861 173.24375986 -68.50431932 167.67764885 -74.98828125 161.203125 C-75.65730469 160.54570313 -76.32632813 159.88828125 -77.015625 159.2109375 C-95.18590398 140.01059736 -98.77923435 113.88034654 -98.26953125 88.6171875 C-97.40936007 64.02345989 -87.68337178 42.07698286 -69.80078125 25.078125 C-50.79768425 8.3784337 -25.12583926 0.16103233 0 0 Z " fill="#000000" transform="translate(296.98828125,1215.796875)"/>
<path d="M0 0 C1.32 0 2.64 0 4 0 C11.86875556 16.57912585 19.59609995 33.20758376 27 50 C32.02772578 61.40207665 37.16870417 72.73661986 42.5 84 C47.83130326 95.26339582 52.97172842 106.59815494 58 118 C63.2846928 129.98023118 68.68130677 141.89889131 74.25 153.75 C74.72203857 154.75546875 74.72203857 154.75546875 75.20361328 155.78125 C77.1211521 159.86120595 79.05720697 163.93199357 81 168 C81.38768555 168.83297607 81.77537109 169.66595215 82.17480469 170.52416992 C85.44205857 177.39028664 89.99813279 182.04882852 97.125 184.875 C100.36922632 185.92007686 103.61439778 186.57679972 107 187 C107 187.99 107 188.98 107 190 C78.95 190 50.9 190 22 190 C22 189.01 22 188.02 22 187 C22.61488281 186.82984375 23.22976562 186.6596875 23.86328125 186.484375 C28.78302986 185.02951201 28.78302986 185.02951201 33.0625 182.3125 C35.28397338 176.83286567 34.15040024 171.45709064 32.00683594 166.18847656 C31.5857959 165.21346191 31.5857959 165.21346191 31.15625 164.21875 C30.90069336 163.59774414 30.64513672 162.97673828 30.38183594 162.33691406 C29.43658374 160.05152917 28.46690342 157.7763092 27.5 155.5 C25.355 150.385 23.21 145.27 21 140 C-9.195 139.505 -9.195 139.505 -40 139 C-40.33 140.65 -40.66 142.3 -41 144 C-41.86239934 146.21343966 -42.77545034 148.4074406 -43.72265625 150.5859375 C-44.26672939 151.85918137 -44.81033475 153.13262522 -45.35351562 154.40625 C-46.20635351 156.39203532 -47.06291604 158.37595249 -47.92797852 160.35644531 C-48.76671546 162.28245159 -49.58937333 164.21472462 -50.41015625 166.1484375 C-50.90652588 167.29489746 -51.40289551 168.44135742 -51.91430664 169.62255859 C-53.09999556 173.31107231 -53.30311788 176.14892647 -53 180 C-51.40031223 182.99941457 -50.18495359 184.56581853 -46.953125 185.75 C-44.98850122 186.25160607 -42.99440759 186.63435861 -41 187 C-41 187.99 -41 188.98 -41 190 C-59.81 190 -78.62 190 -98 190 C-98 189.01 -98 188.02 -98 187 C-97.2265625 186.85304688 -96.453125 186.70609375 -95.65625 186.5546875 C-87.70402079 184.8422025 -81.41748152 182.79541468 -76.55102539 175.96679688 C-72.6857079 169.54563403 -69.58960014 162.92383647 -66.65274048 156.03329468 C-65.46679921 153.25165443 -64.26440571 150.47720356 -63.06340027 147.70204163 C-62.40980522 146.19142011 -61.75699996 144.68045667 -61.10493469 143.16917419 C-57.06659159 133.81588429 -52.93672638 124.5031485 -48.8125 115.1875 C-47.59993515 112.44639758 -46.38764103 109.70517553 -45.17536926 106.96394348 C-44.35627969 105.11184105 -43.53709596 103.25978026 -42.71781921 101.40776062 C-39.81487004 94.84500595 -36.91627811 88.28033811 -34.01953125 81.71484375 C-32.79180093 78.93293073 -31.56398836 76.15105403 -30.33612061 73.36920166 C-29.53146911 71.54599267 -28.7269839 69.72271029 -27.92266846 67.89935303 C-24.02208894 59.05826624 -20.11441266 50.22116078 -16.12890625 41.41796875 C-15.83246216 40.76304443 -15.53601807 40.10812012 -15.23059082 39.43334961 C-14.9426062 38.7971167 -14.65462158 38.16088379 -14.35791016 37.50537109 C-5.59209623 19.29769483 -5.59209623 19.29769483 0 0 Z M-9 65 C-11.59811171 71.13315282 -14.19386103 77.26730174 -16.78808594 83.40209961 C-17.66809543 85.48239963 -18.54861574 87.56248365 -19.4296875 89.64233398 C-28.90428931 107.81855118 -28.90428931 107.81855118 -34 127 C-17.5 127 -1 127 16 127 C13.78562405 119.4201701 13.78562405 119.4201701 11.16235352 112.06030273 C10.83513809 111.22921494 10.50792267 110.39812714 10.17079163 109.54185486 C9.82696945 108.68112869 9.48314728 107.82040253 9.12890625 106.93359375 C8.76530502 106.01465836 8.4017038 105.09572296 8.02708435 104.14894104 C7.26342035 102.22132074 6.49777562 100.29448405 5.73022461 98.3684082 C4.56484742 95.44339186 3.40594196 92.51587581 2.24804688 89.58789062 C1.50037846 87.70297484 0.75234385 85.81820425 0.00390625 83.93359375 C-0.33789169 83.07084335 -0.67968964 82.20809296 -1.03184509 81.31919861 C-3.22651141 75.81913583 -5.55484038 70.39333542 -8 65 C-8.33 65 -8.66 65 -9 65 Z " fill="#000000" transform="translate(98,1214)"/>
<path d="M0 0 C0.67948196 -0.00095673 1.35896393 -0.00191345 2.05903625 -0.00289917 C3.49370415 -0.00357736 4.92837517 -0.00174833 6.36303711 0.00244141 C8.52660272 0.00775314 10.68995677 0.00250576 12.85351562 -0.00390625 C19.42560786 -0.00717486 25.91206905 0.10946511 32.44750977 0.87890625 C37.27814801 1.38662366 42.13657708 1.50704663 46.98828125 1.6953125 C48.04015625 1.73849609 49.09203125 1.78167969 50.17578125 1.82617188 C52.73818752 1.93099759 55.30066924 2.03316605 57.86328125 2.1328125 C57.99014343 9.79622783 57.63488575 17.31615271 56.92578125 24.9453125 C56.83876953 25.94240234 56.75175781 26.93949219 56.66210938 27.96679688 C56.23442144 32.72838925 55.74959235 37.42977434 54.86328125 42.1328125 C53.54328125 42.1328125 52.22328125 42.1328125 50.86328125 42.1328125 C50.75113281 41.09833984 50.75113281 41.09833984 50.63671875 40.04296875 C49.4942112 31.87740008 47.12426937 25.8560851 40.8203125 20.34765625 C29.53769469 12.22017758 16.16546372 11.57580759 2.76171875 13.6015625 C-6.24167842 15.94300325 -12.3023833 21.36857678 -17.13671875 29.1328125 C-18.91346351 34.46304677 -18.99129687 39.90952854 -16.76171875 45.1328125 C-10.99453605 55.13188695 -0.21830689 60.81656092 9.3046875 66.6796875 C15.71270019 70.63135378 22.0060604 74.75445662 28.30078125 78.8828125 C29.36554688 79.57955078 30.4303125 80.27628906 31.52734375 80.99414062 C34.64256501 83.03548126 37.75349274 85.08320699 40.86328125 87.1328125 C41.94134033 87.84010498 43.01939941 88.54739746 44.13012695 89.27612305 C45.18159912 89.9700415 46.23307129 90.66395996 47.31640625 91.37890625 C48.25516602 91.99693115 49.19392578 92.61495605 50.16113281 93.25170898 C60.76925251 100.63656282 69.47966386 110.02591695 72.42578125 122.93359375 C74.5747235 138.64773396 73.09826114 154.41800428 63.7578125 167.7109375 C51.48304255 183.40239599 34.18550134 189.65824856 14.86328125 192.1328125 C10.81637409 192.41032967 6.79383019 192.46770294 2.73828125 192.4453125 C1.65297119 192.43967285 0.56766113 192.4340332 -0.55053711 192.42822266 C-17.5633751 192.17465568 -39.45608657 189.92090766 -52.13671875 177.1328125 C-57.61897898 168.90942216 -55.26116329 157.28751249 -53.48095703 148.1015625 C-50.95555516 135.9933928 -50.95555516 135.9933928 -48.13671875 132.1328125 C-45.50390625 131.37890625 -45.50390625 131.37890625 -43.13671875 131.1328125 C-43.09804687 132.34904297 -43.09804687 132.34904297 -43.05859375 133.58984375 C-42.32752868 147.86222776 -37.59745893 159.64858983 -27.1015625 169.5703125 C-16.03348847 178.37196182 -1.82946785 180.17939205 11.86328125 179.1328125 C21.25612438 177.80049433 28.58875896 174.51982222 35.23828125 167.6953125 C39.33567962 161.23403045 41.72312711 154.50227551 40.49609375 146.83984375 C36.56947307 132.75733378 22.1305705 125.89185011 10.71875 118.45703125 C8.80519818 117.20399037 6.89179124 115.95072822 4.97851562 114.69726562 C2.01835898 112.76011328 -0.94277132 110.8245148 -3.90649414 108.89282227 C-45.41226738 81.82413991 -45.41226738 81.82413991 -50.57421875 61.3828125 C-52.73933166 47.47698425 -50.19552538 31.64392962 -41.83203125 20.19140625 C-30.96704331 6.99820661 -17.2772868 0.01558016 0 0 Z " fill="#000000" transform="translate(1503.13671875,1215.8671875)"/>
<path d="M0 0 C28.05 0 56.1 0 85 0 C85 1.32 85 2.64 85 4 C84.39671875 4.07476563 83.7934375 4.14953125 83.171875 4.2265625 C78.83266061 4.94043325 76.55709307 5.44290693 73.375 8.625 C71.01364907 14.42104319 72.69105774 19.86503409 74.96624756 25.50080872 C75.23519836 26.13862778 75.50414917 26.77644684 75.78125 27.43359375 C76.06647522 28.1318779 76.35170044 28.83016205 76.64556885 29.54960632 C77.58778018 31.84950552 78.54376497 34.14340016 79.5 36.4375 C80.17171789 38.06916159 80.842599 39.70116788 81.51269531 41.33349609 C83.29639616 45.67082475 85.0924503 50.00292248 86.89233398 54.33355713 C88.36286928 57.87352162 89.82862388 61.41545738 91.29454041 64.95733643 C93.82707082 71.07591129 96.36205437 77.19345748 98.90405273 83.30810547 C104.66986403 97.17842716 110.36139656 111.07744788 116 125 C119.6112413 117.98973918 122.85510255 110.88042891 125.921875 103.6171875 C126.37982452 102.5398082 126.83777405 101.46242889 127.30960083 100.35240173 C128.79274452 96.86120362 130.27143805 93.36814068 131.75 89.875 C132.77461693 87.46040947 133.79952173 85.04594107 134.82470703 82.6315918 C136.89213186 77.76170521 138.95790538 72.89112317 141.02246094 68.02001953 C143.76072964 61.56120257 146.50752434 55.10605016 149.2578125 48.65234375 C150.42865289 45.90361206 151.59940521 43.15484288 152.7701416 40.40606689 C153.50384907 38.68374718 154.23781514 36.96153761 154.9720459 35.23944092 C155.97988203 32.87494685 156.9862359 30.50982756 157.9921875 28.14453125 C158.28586212 27.45648911 158.57953674 26.76844696 158.8821106 26.05955505 C161.19055229 20.62518384 162.8334282 15.9789414 162 10 C159.82990786 6.56402078 157.53899489 5.7308391 153.75 4.75 C152.5125 4.5025 151.275 4.255 150 4 C150 2.68 150 1.36 150 0 C168.81 0 187.62 0 207 0 C207 1.32 207 2.64 207 4 C206.3709375 4.08636719 205.741875 4.17273437 205.09375 4.26171875 C195.69975938 5.80380456 189.65424387 9.2510824 184 17 C182.54333271 19.54492629 181.33506887 22.17687228 180.13671875 24.8515625 C179.61331909 25.99039635 179.61331909 25.99039635 179.0793457 27.15223694 C177.93952487 29.63906872 176.81335928 32.13182023 175.6875 34.625 C174.88905854 36.37504379 174.08997666 38.12479554 173.2902832 39.87426758 C167.32974594 52.94332892 161.49509386 66.06873866 155.69018555 79.20751953 C151.72063225 88.18432063 147.66312715 97.11088215 143.5 106 C137.73142443 118.31864181 132.18172252 130.72786359 126.68652344 143.17041016 C126.02024534 144.67873879 125.35390536 146.18704009 124.6875 147.6953125 C124.20570282 148.78593491 124.20570282 148.78593491 123.71417236 149.89859009 C121.88528689 154.02944645 120.02567339 158.14368932 118.125 162.2421875 C113.89538712 171.36955381 110.32357257 180.18574941 108 190 C106.68 190.33 105.36 190.66 104 191 C99.44590099 182.06251602 95.13848481 173.05282081 91.03442383 163.90136719 C85.33338014 151.19837052 79.47445036 138.57646689 73.5 126 C67.7650274 113.92436296 62.15269899 101.80213131 56.65643311 89.61611938 C50.70491291 76.4323291 44.52602861 63.36111473 38.29614258 50.30688477 C33.96047629 41.21116915 29.66269496 32.10643548 25.81103516 22.79174805 C22.30981053 14.64433489 17.53201035 9.64875289 9.48046875 5.93359375 C6.25829315 4.72083789 3.42765247 4.22354255 0 4 C0 2.68 0 1.36 0 0 Z " fill="#000000" transform="translate(878,1219)"/>
<path d="M0 0 C26.73 0 53.46 0 81 0 C80.67 1.32 80.34 2.64 80 4 C79.35933594 4.07476563 78.71867188 4.14953125 78.05859375 4.2265625 C71.76253516 5.18363847 66.94136414 6.75977722 63 12 C61.33238607 16.23900201 60.74791363 19.78265368 60.73930359 24.3243103 C60.72867638 26.19990379 60.72867638 26.19990379 60.71783447 28.11338806 C60.72012796 29.48623694 60.72263761 30.85908547 60.7253418 32.23193359 C60.72099125 33.68780274 60.71580695 35.1436696 60.70985413 36.59953308 C60.69648902 40.54382993 60.69588273 44.4880308 60.69841743 48.43234587 C60.69948893 51.72993125 60.69459912 55.02749736 60.689812 58.32507861 C60.6787252 66.10768432 60.67827461 73.89024177 60.68432617 81.67285156 C60.69036459 89.69016357 60.67805646 97.70730002 60.6567561 105.72458208 C60.63911742 112.61820064 60.63314236 119.51176344 60.63639385 126.40540373 C60.6382034 130.51810394 60.63560343 134.63067893 60.62167931 138.74335861 C60.60906878 142.6126926 60.61107533 146.48175377 60.62409019 150.35108376 C60.62644861 151.7667799 60.62374772 153.18249544 60.61546707 154.59816933 C60.57508466 162.04189718 60.62816034 168.27202324 64 175 C68.84100952 179.84100952 74.53561036 181.22546167 81 183 C81 183.66 81 184.32 81 185 C54.27 185 27.54 185 0 185 C0 184.01 0 183.02 0 182 C0.58007812 181.90203125 1.16015625 181.8040625 1.7578125 181.703125 C7.93319449 180.52103868 12.47041923 178.79126154 16.8125 174 C19.14072033 170.07878682 19.12970129 166.33474736 19.14717102 161.840271 C19.15432632 160.57579636 19.16148163 159.31132172 19.16885376 158.00852966 C19.17169383 156.60952783 19.17440558 155.21052574 19.17700195 153.81152344 C19.18326938 152.33624614 19.18991643 150.86097042 19.19691467 149.38569641 C19.21792356 144.54360039 19.22831381 139.70150417 19.23828125 134.859375 C19.24232993 133.19042189 19.24644689 131.52146895 19.25063133 129.85251617 C19.26967571 122.01113272 19.28390855 114.16975863 19.2922433 106.3283565 C19.30201451 97.28560513 19.32833405 88.24309861 19.36874419 79.20043349 C19.39893002 72.20495453 19.41371449 65.20954566 19.41702431 58.21400285 C19.4193719 54.03861254 19.42829424 49.86348404 19.45348549 45.68816376 C19.47681474 41.75808382 19.48098018 37.8284372 19.47072411 33.89830589 C19.47022982 32.46002191 19.47651872 31.02171623 19.49028015 29.583498 C19.56195028 21.64583203 19.42144203 15.73510406 15 9 C13.22387116 7.31579644 13.22387116 7.31579644 11.1875 6.5625 C10.50042969 6.26988281 9.81335938 5.97726562 9.10546875 5.67578125 C6.05345723 4.69619314 3.19325487 4.26610457 0 4 C0 2.68 0 1.36 0 0 Z " fill="#000000" transform="translate(629,1219)"/>
<path d="M0 0 C8.88503656 -0.06997549 17.76997606 -0.12304983 26.65522957 -0.15543652 C30.78246016 -0.1709923 34.90950015 -0.19204234 39.03662109 -0.22631836 C43.03075874 -0.25927664 47.02471482 -0.27692852 51.01897812 -0.28463173 C52.5313693 -0.29011065 54.04375225 -0.30080626 55.55606461 -0.31719017 C75.18128686 -0.52105463 92.23830276 3.26510599 107.0390625 16.875 C118.20245073 28.67770121 121.68663707 44.44587812 121.27734375 60.27734375 C120.1393433 75.55219481 115.09625407 89.33628596 103.66796875 99.8828125 C99.39442977 103.27411284 94.96721917 105.76896088 90 108 C89.14921875 108.38929687 88.2984375 108.77859375 87.421875 109.1796875 C74.94997205 114.29540817 60.936203 114.30113009 47.65625 114.1953125 C46.26664436 114.19156644 44.87703602 114.18872705 43.48742676 114.18673706 C39.8905259 114.1792256 36.29379552 114.15969034 32.69696045 114.1373291 C29.00242415 114.11659577 25.30785938 114.10767759 21.61328125 114.09765625 C14.40877779 114.07642782 7.20441308 114.04245025 0 114 C0 113.01 0 112.02 0 111 C1.0725 110.773125 2.145 110.54625 3.25 110.3125 C7.60334658 108.7888287 8.65430711 107.91207464 11 104 C11.57904827 100.89207529 11.5570167 97.83783454 11.53344727 94.68334961 C11.54637062 93.28737801 11.54637062 93.28737801 11.55955505 91.86320496 C11.58222438 88.79263356 11.57547532 85.7229739 11.56640625 82.65234375 C11.57164069 80.51672596 11.5779165 78.38111048 11.58518982 76.24549866 C11.59559529 71.77252309 11.59102921 67.29986564 11.57641602 62.8269043 C11.55921156 57.09089957 11.58274376 51.35589495 11.61790562 45.62000179 C11.63984744 41.21136317 11.63844618 36.80296516 11.6301403 32.39428902 C11.62931934 30.27914901 11.63621027 28.16399159 11.65091133 26.04890251 C11.66830137 23.09439097 11.65386162 20.14169383 11.63110352 17.18725586 C11.64279572 16.31182129 11.65448792 15.43638672 11.66653442 14.53442383 C11.59855559 9.49507259 11.59855559 9.49507259 8.66758728 5.47267151 C5.72704222 3.84931059 3.3293365 3.30970572 0 3 C0 2.01 0 1.02 0 0 Z M37 8 C37 40.34 37 72.68 37 106 C61.18317477 106.8451968 61.18317477 106.8451968 81.0078125 96.21484375 C91.8917826 84.74191423 94.07737097 69.16807357 94 54 C93.32193879 38.98680174 88.90982248 25.06960097 77.8984375 14.5390625 C65.8573843 4.77738562 52.69942507 8 37 8 Z " fill="#000000" transform="translate(832,1436)"/>
<path d="M0 0 C12.85631305 9.72771559 19.4036454 21.20862633 22.5859375 36.88671875 C24.85729111 53.96472657 22.57572543 71.78803304 11.890625 85.7578125 C0.65276321 98.73948043 -13.43072036 106.20295125 -30.64453125 107.87109375 C-51.56479984 109.01598407 -71.06478468 106.68045535 -87.5625 92.625 C-100.01131509 80.40633107 -104.90303712 65.90274361 -105.3125 48.6875 C-105.02493595 32.90342903 -100.48321062 17.5768052 -89.2734375 6.0234375 C-66.15769092 -14.55037132 -25.97246326 -16.77388252 0 0 Z M-64.625 7.0625 C-77.21912585 20.37546865 -77.72030881 38.49514527 -77.3515625 55.70703125 C-76.77750045 69.57744405 -72.43905869 81.87082038 -63.03125 92.20703125 C-55.82751413 98.56571349 -47.55803575 100.38704977 -38.23046875 100.2734375 C-29.24849445 99.51317365 -21.9074844 95.77737771 -16 89 C-3.92627829 72.5842206 -2.99798484 52.09037331 -5.30029297 32.43652344 C-7.41575142 20.32586064 -13.35657324 9.67574226 -23 2 C-36.93294313 -6.8361496 -52.92502113 -3.43419876 -64.625 7.0625 Z " fill="#000000" transform="translate(1294,1444)"/>
<path d="M0 0 C80.19 0 160.38 0 243 0 C249 11 249 11 248 16 C246 19 246 19 244.17424381 19.37259549 C243.05444855 19.37088675 243.05444855 19.37088675 241.91203117 19.36914349 C241.05113376 19.37511663 240.19023636 19.38108978 239.30325115 19.38724393 C238.35190355 19.3785054 237.40055595 19.36976688 236.42037964 19.36076355 C235.41411691 19.36332682 234.40785418 19.3658901 233.37109864 19.36853105 C229.97754536 19.37349779 226.58443069 19.35692829 223.19091797 19.34057617 C220.76700857 19.33973053 218.3430984 19.34020382 215.91918945 19.34190369 C210.68953027 19.34258826 205.45997145 19.33404385 200.23034286 19.31719017 C192.6691323 19.29283826 185.10797607 19.28499882 177.54673053 19.2812262 C165.27998363 19.27465571 153.01329648 19.25467841 140.74658203 19.22631836 C128.82861633 19.19879321 116.91066684 19.17755208 104.99267578 19.16479492 C103.89126258 19.16361267 103.89126258 19.16361267 102.76759861 19.16240653 C99.08405846 19.15849149 95.40051818 19.15470035 91.71697783 19.15097082 C61.14460781 19.11985633 30.5723154 19.06618034 0 19 C0 12.73 0 6.46 0 0 Z " fill="#000000" transform="translate(0,1483)"/>
<path d="M0 0 C15.51 0 31.02 0 47 0 C47 0.99 47 1.98 47 3 C45.906875 3.103125 44.81375 3.20625 43.6875 3.3125 C40.18989635 3.72070527 40.18989635 3.72070527 38.29379272 5.11277771 C36.32230871 7.98853092 36.61836542 10.42574526 36.61181641 13.88305664 C36.60393097 14.92763535 36.60393097 14.92763535 36.59588623 15.99331665 C36.58266879 18.29915728 36.59143667 20.60430835 36.6015625 22.91015625 C36.59954065 24.51859163 36.59662829 26.12702612 36.59286499 27.73545837 C36.58843797 31.11238299 36.59487876 34.48906981 36.60888672 37.8659668 C36.62588292 42.17086279 36.61620123 46.47519368 36.59816933 50.7800684 C36.58725918 54.10634002 36.59081237 57.43248078 36.5985527 60.75875664 C36.60053982 62.34420274 36.59814834 63.92966111 36.59111404 65.51509285 C36.54769423 78.06497197 37.37441008 89.88856917 46.41015625 99.5 C51.94107309 104.45570149 58.62495905 106.91972402 65.98046875 107.0546875 C75.20953194 106.53759017 82.88941558 104.70461671 89.375 97.75 C95.18569494 90.21091138 97.11015786 82.26251943 97.16113281 72.88647461 C97.16609772 72.18991257 97.17106262 71.49335052 97.17617798 70.77568054 C97.19071628 68.48455806 97.19758542 66.19350467 97.203125 63.90234375 C97.20888062 62.30481465 97.2146383 60.70728556 97.22039795 59.10975647 C97.2308823 55.76677124 97.23674262 52.42380989 97.24023438 49.08081055 C97.24573252 44.79785786 97.26979918 40.51522092 97.29820633 36.23236752 C97.31682351 32.93554251 97.32203767 29.63879399 97.32357025 26.34192085 C97.32659629 24.76266301 97.33462321 23.1834065 97.34775543 21.60420036 C97.36480717 19.39726425 97.362939 17.19110609 97.35644531 14.98413086 C97.36009094 13.72902206 97.36373657 12.47391327 97.36749268 11.18077087 C96.97187042 7.75652912 96.49198507 6.34927491 94 4 C90.39534252 3.18685089 90.39534252 3.18685089 87 3 C87 2.01 87 1.02 87 0 C98.55 0 110.1 0 122 0 C122 0.99 122 1.98 122 3 C121.37351562 3.09796875 120.74703125 3.1959375 120.1015625 3.296875 C119.28429687 3.44640625 118.46703125 3.5959375 117.625 3.75 C116.81289063 3.88921875 116.00078125 4.0284375 115.1640625 4.171875 C112.91506103 4.79970385 112.91506103 4.79970385 111.88070679 6.61071777 C110.69075426 9.83895726 110.7480407 12.61591902 110.74462891 16.05664062 C110.74100845 16.75971344 110.737388 17.46278625 110.73365784 18.18716431 C110.72677492 19.71164149 110.72425633 21.23614325 110.72560501 22.76063538 C110.72657358 25.18397491 110.71358551 27.60687483 110.69662476 30.03015137 C110.65047833 36.91947948 110.62579039 43.80876482 110.61914062 50.69824219 C110.61408698 54.91761732 110.58963637 59.13653818 110.55381393 63.35575867 C110.54409687 64.95347854 110.54163916 66.5512616 110.54698563 68.14900208 C110.59074184 81.88006902 108.9764262 93.7588931 99 104 C87.69663089 114.3114408 74.09896392 116.64378888 59.18359375 116.2421875 C45.39213914 115.59264825 31.56563837 112.26839955 21 102.8125 C14.12288733 95.13247569 10.90069658 85.91887811 10.82641602 75.81640625 C10.819729 75.10048309 10.81304199 74.38455994 10.80615234 73.64694214 C10.79213184 72.09625936 10.7802283 70.5455563 10.77020454 68.99484253 C10.75375674 66.5401875 10.73051897 64.08568325 10.70530701 61.63110352 C10.63462432 54.65355975 10.57436047 47.67595595 10.52319336 40.69824219 C10.49139836 36.42712939 10.45012702 32.15619317 10.40299797 27.88522339 C10.3869876 26.25856702 10.37466156 24.63187005 10.36609077 23.00515747 C10.35393309 20.73112038 10.3297834 18.45749864 10.30297852 16.18359375 C10.29267105 14.88993896 10.28236359 13.59628418 10.27174377 12.26342773 C10.0184039 9.2210163 9.71396612 7.49138565 8 5 C6.06018382 4.09390008 6.06018382 4.09390008 3.875 3.75 C2.59625 3.5025 1.3175 3.255 0 3 C0 2.01 0 1.02 0 0 Z " fill="#000000" transform="translate(619,1436)"/>
<path d="M0 0 C78.21 0 156.42 0 237 0 C237 6.27 237 12.54 237 19 C158.79 19 80.58 19 0 19 C0 12.73 0 6.46 0 0 Z " fill="#000000" transform="translate(1339,1483)"/>
<path d="M0 0 C1.02939697 -0.00193359 2.05879395 -0.00386719 3.11938477 -0.00585938 C4.21049561 -0.00134766 5.30160645 0.00316406 6.42578125 0.0078125 C7.53816162 0.00974609 8.65054199 0.01167969 9.79663086 0.01367188 C18.81560261 0.06047977 27.74365015 0.4845508 36.73828125 1.1328125 C36.07828125 9.3828125 35.41828125 17.6328125 34.73828125 26.1328125 C33.74828125 26.1328125 32.75828125 26.1328125 31.73828125 26.1328125 C31.59132813 25.46894531 31.444375 24.80507812 31.29296875 24.12109375 C29.68480812 17.79011655 28.27964556 14.67928566 22.73828125 11.1328125 C16.29722001 7.55444514 7.85217466 7.41834617 0.84765625 9.28125 C-4.38080093 11.39199753 -7.49742462 14.51603645 -9.88671875 19.5703125 C-10.33786775 23.85622803 -9.67627227 26.63920899 -7.26171875 30.1328125 C-1.43318207 35.6750909 5.18495865 39.76079185 11.98828125 44.0078125 C42.02349643 62.81152382 42.02349643 62.81152382 45.3046875 74.65234375 C46.94119625 84.01435326 46.16545529 93.25901699 41.33203125 101.54296875 C35.37997787 109.95164794 26.67457452 114.78791477 16.73828125 117.1328125 C0.98435256 119.77385799 -16.47317936 118.92844921 -30.26171875 110.1328125 C-33.20512265 107.1894086 -33.41956414 104.18761519 -33.51171875 100.1328125 C-33.44337888 93.27604592 -32.08733578 85.87123805 -28.26171875 80.1328125 C-27.27171875 80.1328125 -26.28171875 80.1328125 -25.26171875 80.1328125 C-25.18695313 80.96683594 -25.1121875 81.80085938 -25.03515625 82.66015625 C-24.02183583 91.33298694 -22.26044158 98.00607783 -15.3359375 103.72265625 C-7.53078594 108.95135001 0.51322237 109.91792389 9.73828125 109.1328125 C16.15326227 107.78229018 20.23909835 104.58406508 24.05078125 99.3203125 C25.43052105 94.93023131 25.39108615 90.80562506 23.73828125 86.5703125 C18.2970115 79.938765 11.24492582 75.28848666 4.05078125 70.7578125 C2.28055171 69.62087818 0.51102086 68.48285526 -1.2578125 67.34375 C-2.1122998 66.79557617 -2.96678711 66.24740234 -3.84716797 65.68261719 C-26.28505204 51.28062648 -26.28505204 51.28062648 -29.86328125 41.3359375 C-31.38520045 32.92061959 -31.66083215 22.73001151 -27.26171875 15.1328125 C-20.2998508 5.44673535 -12.04158737 0.01479181 0 0 Z " fill="#000000" transform="translate(292.26171875,1433.8671875)"/>
<path d="M0 0 C4.62 0.66 9.24 1.32 14 2 C16.74221348 2.15721121 19.48936994 2.25530944 22.23608398 2.25878906 C23.30028564 2.26404602 23.30028564 2.26404602 24.38598633 2.26940918 C26.67279604 2.27803052 28.95928231 2.27244788 31.24609375 2.265625 C32.87166908 2.26697744 34.49724402 2.26892275 36.12281799 2.27142334 C39.50712995 2.27434826 42.89133534 2.27016336 46.27563477 2.26074219 C50.56952389 2.24935849 54.86316256 2.2559172 59.1570425 2.26788712 C62.5074902 2.27518539 65.85788054 2.27278151 69.20833015 2.26763153 C70.78964329 2.26631646 72.37096198 2.26786563 73.9522686 2.27259064 C84.17237481 2.29643778 93.88902469 1.55026488 104 0 C104 9.57 104 19.14 104 29 C103.01 29 102.02 29 101 29 C100.90203125 28.33613281 100.8040625 27.67226562 100.703125 26.98828125 C99.80323387 21.67426898 99.07111187 17.8316347 95 14 C89.22414554 10.14943036 81.32151094 10.72886032 74.625 10.4375 C73.69816406 10.39431641 72.77132812 10.35113281 71.81640625 10.30664062 C69.54439706 10.20123814 67.27229075 10.09911394 65 10 C65.03801166 22.70870653 65.09730745 35.41711743 65.18390274 48.12559128 C65.22343954 54.0264473 65.25559764 59.9271527 65.27099609 65.828125 C65.28612171 71.52116741 65.32049458 77.2137959 65.36830902 82.90665436 C65.38316509 85.08035945 65.39104342 87.25412363 65.39188385 89.42787933 C65.39424251 92.46897193 65.42123387 95.50891034 65.45410156 98.54980469 C65.4490712 99.45179596 65.44404083 100.35378723 65.43885803 101.28311157 C65.50232338 106.23116544 65.50232338 106.23116544 67.79974365 110.51251221 C70.70981796 112.47987388 73.59887823 113.21512575 77 114 C77 114.99 77 115.98 77 117 C60.5 117 44 117 27 117 C27 116.01 27 115.02 27 114 C27.62648438 113.81824219 28.25296875 113.63648438 28.8984375 113.44921875 C29.71570313 113.19785156 30.53296875 112.94648437 31.375 112.6875 C32.18710937 112.44386719 32.99921875 112.20023438 33.8359375 111.94921875 C36.33184629 111.08631815 36.33184629 111.08631815 38 108 C38.30888295 106.05973844 38.30888295 106.05973844 38.2784729 103.91877747 C38.28963638 103.09006638 38.30079987 102.26135529 38.31230164 101.40753174 C38.31446182 100.50194519 38.31662201 99.59635864 38.31884766 98.66333008 C38.33391609 97.22889809 38.33391609 97.22889809 38.34928894 95.76548767 C38.3802145 92.60017506 38.39718217 89.43494738 38.4140625 86.26953125 C38.4327666 84.07662724 38.45233944 81.88373048 38.4727478 79.69084167 C38.52415504 73.91558094 38.56373479 68.14029686 38.60089111 62.3649292 C38.64087693 56.47304465 38.69199397 50.58125799 38.7421875 44.68945312 C38.83904851 33.12637075 38.92342072 21.56323323 39 10 C35.68657298 10.08203123 32.37483508 10.19475771 29.0625 10.3125 C28.13630859 10.33505859 27.21011719 10.35761719 26.25585938 10.38085938 C19.18281053 10.65385424 12.13050532 11.35111089 6.5625 16.0625 C4.36222736 20.19901256 3.67958942 24.39488747 3 29 C2.01 29 1.02 29 0 29 C0 19.43 0 9.86 0 0 Z " fill="#000000" transform="translate(427,1433)"/>
<path d="M0 0 C16.5 0 33 0 50 0 C50 0.99 50 1.98 50 3 C48.01432292 3.390625 46.02864583 3.78125 44.04296875 4.171875 C41.20237539 5.32332011 40.5015803 6.29598817 39 9 C38.54592257 12.02945915 38.58004922 15.03679253 38.59594727 18.09545898 C38.58565239 19.47417175 38.58565239 19.47417175 38.57514954 20.8807373 C38.55684685 23.91934656 38.56072406 26.9574412 38.56640625 29.99609375 C38.56184606 32.10832386 38.55654098 34.22055248 38.55052185 36.33277893 C38.54158388 40.76040676 38.54402167 45.18785429 38.55395508 49.61547852 C38.56544449 55.2896224 38.54523687 60.96314396 38.51603794 66.63720608 C38.49769205 70.99953668 38.49796523 75.36171773 38.50367546 79.72407722 C38.50382888 81.81605973 38.49776774 83.90805224 38.48538399 85.99999809 C38.47050679 88.92544467 38.48112732 91.84973606 38.49829102 94.77514648 C38.48378906 96.07123589 38.48378906 96.07123589 38.46899414 97.39350891 C38.51797494 101.38024014 38.70468197 103.50787684 40.79698181 106.99452209 C43.64448454 109.58669489 46.27548517 110.21212186 50 111 C50 111.99 50 112.98 50 114 C33.5 114 17 114 0 114 C0 113.01 0 112.02 0 111 C1.8871875 110.5978125 1.8871875 110.5978125 3.8125 110.1875 C6.98960977 109.39041592 9.08610587 108.81455019 11 106 C12.31192079 102.06423762 12.15574261 98.30498895 12.16113281 94.20166016 C12.16609772 93.30217148 12.17106262 92.4026828 12.17617798 91.47593689 C12.19079653 88.49697101 12.19760082 85.51805837 12.203125 82.5390625 C12.20887634 80.47024534 12.21463408 78.40142821 12.22039795 76.33261108 C12.23090681 71.99322257 12.23675035 67.65385258 12.24023438 63.31445312 C12.24572133 57.75362939 12.26975423 52.19305023 12.29820633 46.63230324 C12.31682722 42.35836063 12.322038 38.08447703 12.32357025 33.81049728 C12.32659813 31.76037635 12.3346312 29.71025649 12.34775543 27.66017532 C12.36480561 24.7923036 12.36293823 21.92503072 12.35644531 19.05712891 C12.3656601 18.21019974 12.37487488 17.36327057 12.3843689 16.49067688 C12.35146902 11.85295383 12.04714104 8.74859114 9 5 C6.76162201 3.98325288 6.76162201 3.98325288 4.3125 3.6875 C3.10013672 3.47673828 3.10013672 3.47673828 1.86328125 3.26171875 C1.24839844 3.17535156 0.63351562 3.08898438 0 3 C0 2.01 0 1.02 0 0 Z " fill="#000000" transform="translate(1045,1436)"/>
</svg>
